<svg width="32" height="32" viewBox="0 0 32 32" fill="none" xmlns="http://www.w3.org/2000/svg">
<mask id="mask0_112_400" style="mask-type:luminance" maskUnits="userSpaceOnUse" x="7" y="4" width="19" height="23">
<path d="M7 4H26V27H7V4Z" fill="white"/>
</mask>
<g mask="url(#mask0_112_400)">
<path d="M16.5 5C18.852 5 20.983 5.91 22.526 7.389C24.052 8.85 25 10.87 25 13.104C25 16.184 22.059 20.334 16.5 25.625C10.94 20.333 8 16.183 8 13.105C8 10.871 8.948 8.851 10.474 7.389C12.017 5.91 14.148 5 16.5 5Z" stroke="white" stroke-width="2"/>
<path d="M16.5 14C16.7652 14 17.0196 13.8946 17.2071 13.7071C17.3946 13.5196 17.5 13.2652 17.5 13C17.5 12.7348 17.3946 12.4804 17.2071 12.2929C17.0196 12.1054 16.7652 12 16.5 12C16.2348 12 15.9804 12.1054 15.7929 12.2929C15.6054 12.4804 15.5 12.7348 15.5 13C15.5 13.2652 15.6054 13.5196 15.7929 13.7071C15.9804 13.8946 16.2348 14 16.5 14Z" stroke="white" stroke-width="2"/>
</g>
</svg>
