<svg width="120" height="46" viewBox="0 0 120 46" fill="none" xmlns="http://www.w3.org/2000/svg">
<g clip-path="url(#clip0_112_436)">
<path d="M20.8001 13.8191L23.3462 9.39983C23.7042 8.77938 23.8012 8.04227 23.6162 7.3503C23.4312 6.65834 22.9791 6.06807 22.3593 5.70906C22.0525 5.53181 21.7137 5.41681 21.3623 5.37063C21.011 5.32446 20.654 5.34803 20.3117 5.43998C19.9695 5.53193 19.6487 5.69047 19.3678 5.90652C19.0869 6.12257 18.8514 6.39189 18.6747 6.69906L16.1286 11.1168C10.7016 9.40368 4.62701 11.6206 1.66394 16.7606C0.76914 18.3097 0.219624 20.0339 0.0530024 21.8151C-0.113619 23.5963 0.106589 25.3924 0.698552 27.0806L5.40086 18.9221C5.92935 17.999 6.6357 17.1898 7.47904 16.5415C8.32238 15.8932 9.28594 15.4186 10.3139 15.1452C11.34 14.8669 12.4112 14.7952 13.4652 14.9343C14.5192 15.0733 15.5351 15.4204 16.4539 15.9552C20.3178 18.1898 21.6462 23.1568 19.4155 27.026C17.1847 30.8968 12.2262 32.2275 8.36317 29.9929L11.0601 25.3137C11.3668 25.4911 11.7056 25.6063 12.0569 25.6526C12.4082 25.699 12.7652 25.6755 13.1074 25.5837C13.4497 25.4919 13.7705 25.3335 14.0514 25.1175C14.3324 24.9016 14.568 24.6323 14.7447 24.3252C15.1021 23.7047 15.1988 22.9678 15.0137 22.276C14.8285 21.5843 14.3766 20.9942 13.757 20.6352C13.4502 20.4579 13.1115 20.3428 12.7602 20.2965C12.409 20.2502 12.052 20.2737 11.7098 20.3655C11.3675 20.4573 11.0468 20.6157 10.7658 20.8316C10.4849 21.0475 10.2492 21.3166 10.0724 21.6237L1.46932 36.5491C1.11166 37.1694 1.0147 37.9064 1.19972 38.5981C1.38474 39.2899 1.83664 39.8801 2.45624 40.2391C2.763 40.4166 3.10177 40.5318 3.45314 40.5781C3.8045 40.6244 4.16156 40.601 4.50384 40.5091C4.84613 40.4172 5.16692 40.2587 5.44783 40.0426C5.72874 39.8265 5.96425 39.5571 6.14086 39.2498L8.68778 34.8321C14.1139 36.5452 20.1893 34.3283 23.1524 29.1875C26.1155 24.0475 24.9947 17.6691 20.7993 13.8183M36.3286 22.8691C37.5339 22.8691 38.3016 22.3268 38.3016 21.0144C38.3016 19.6852 37.4986 19.1791 36.3286 19.1791H34.6686V22.8683L36.3286 22.8691ZM32.2239 17.026H36.3978C38.8255 17.026 40.817 18.2329 40.817 21.0144C40.817 23.796 38.8086 25.0221 36.3978 25.0221H34.6693V28.9229H32.2232L32.2239 17.026ZM44.4086 17.026H52.2678V19.1791H46.8532V21.9068H51.6224V24.006H46.8532V26.7714H52.5132V28.9229H44.4078L44.4086 17.026ZM56.6278 17.026H59.0732V26.7714H64.4532V28.9229H56.6278V17.026ZM76.9639 22.9737C76.9639 20.7529 75.497 19.0552 73.3316 19.0552C71.1647 19.0552 69.6986 20.7529 69.6986 22.9737C69.6986 25.1968 71.1647 26.8937 73.3316 26.8937C75.497 26.8937 76.9639 25.196 76.9639 22.9737ZM67.1832 22.9737C67.1832 19.4583 69.9078 16.8683 73.3316 16.8683C76.7547 16.8683 79.4778 19.4583 79.4778 22.9737C79.4778 26.4906 76.7547 29.0814 73.3316 29.0814C69.9086 29.0814 67.1832 26.4906 67.1832 22.9737ZM85.5016 19.1791H82.1139V17.0252H91.3355V19.1791H87.9478V28.9229H85.5016V19.1791ZM103.735 22.9737C103.735 20.7529 102.269 19.0552 100.103 19.0552C97.9362 19.0552 96.4693 20.7529 96.4693 22.9737C96.4693 25.1968 97.9362 26.8937 100.103 26.8937C102.269 26.8937 103.735 25.196 103.735 22.9737ZM93.9539 22.9737C93.9539 19.4583 96.6793 16.8683 100.103 16.8683C103.526 16.8683 106.251 19.4583 106.251 22.9737C106.251 26.4906 103.526 29.0814 100.103 29.0814C96.6793 29.0814 93.9539 26.4906 93.9539 22.9737ZM113.72 23.3937C113.127 22.8344 112.305 21.7668 112.305 21.7668C112.305 21.7668 112.481 23.0791 112.481 23.936V28.9237H110.192V16.9206H110.436L116.427 22.5552C117.004 23.0968 117.824 24.1806 117.824 24.1806C117.824 24.1806 117.668 22.8344 117.668 22.0129V17.026H119.955V29.0275H119.712L113.72 23.3937Z" fill="white"/>
</g>
<defs>
<clipPath id="clip0_112_436">
<rect width="120" height="46" fill="white"/>
</clipPath>
</defs>
</svg>
