<svg width="32" height="32" viewBox="0 0 32 32" fill="none" xmlns="http://www.w3.org/2000/svg">
<path d="M11.736 8.047H27.41C27.4555 8.04692 27.5004 8.05718 27.5413 8.07701C27.5822 8.09684 27.6181 8.12572 27.6463 8.16146C27.6744 8.1972 27.694 8.23886 27.7037 8.28331C27.7133 8.32775 27.7128 8.37381 27.702 8.418L25.026 19.408C25.0103 19.4734 24.9731 19.5317 24.9203 19.5734C24.8675 19.6151 24.8023 19.6378 24.735 19.638H10.975C10.911 19.6382 10.8487 19.6179 10.797 19.5801C10.7454 19.5423 10.7072 19.489 10.688 19.428L6.52 6.21C6.50081 6.14897 6.4626 6.09567 6.41097 6.05789C6.35934 6.02011 6.29698 5.99983 6.233 6H4" stroke="white" stroke-width="2" stroke-linecap="round"/>
<path d="M22.75 26.793C23.7165 26.793 24.5 26.0095 24.5 25.043C24.5 24.0765 23.7165 23.293 22.75 23.293C21.7835 23.293 21 24.0765 21 25.043C21 26.0095 21.7835 26.793 22.75 26.793Z" fill="white"/>
<path d="M12.75 26.793C13.7165 26.793 14.5 26.0095 14.5 25.043C14.5 24.0765 13.7165 23.293 12.75 23.293C11.7835 23.293 11 24.0765 11 25.043C11 26.0095 11.7835 26.793 12.75 26.793Z" fill="white"/>
</svg>
